<svg xmlns="http://www.w3.org/2000/svg"
     height="24"
     width="24"
     viewBox="0 -960 960 960"
     fill="#DEDFE1">
    <path d="M197.37-111.869q-19.153 0-32.327-13.174t-13.174-32.327q0-19.152 13.174-32.326t32.327-13.174h565.26q19.153 0 32.327 13.174t13.174 32.326q0 19.153-13.174 32.327t-32.327 13.174H197.37ZM480-301.065q-8.957 0-17.152-3.098-8.196-3.098-14.913-9.815L304.174-457.739Q291.5-470.413 291.5-489.565q0-19.153 12.674-31.827 12.674-12.674 31.826-12.674t31.826 12.674l66.674 66.674V-802.63q0-19.153 13.174-32.327T480-848.131q19.152 0 32.326 13.174T525.5-802.63v347.912l66.674-66.674q12.674-12.674 31.826-12.674t31.826 12.674q12.674 12.674 12.674 31.827 0 19.152-12.674 31.826L512.065-313.978q-6.717 6.717-14.913 9.815-8.195 3.098-17.152 3.098Z"/>
</svg>