<svg xmlns="http://www.w3.org/2000/svg"
     height="24"
     width="24"
     viewBox="0 -960 960 960"
     fill="#DEDFE1">
    <path d="M555-80H405q-15 0-26-10t-13-25l-12-93q-13-5-24.5-12T307-235l-87 36q-14 5-28 1t-22-17L96-344q-8-13-5-28t15-24l75-57q-1-7-1-13.5v-27q0-6.5 1-13.5l-75-57q-12-9-15-24t5-28l74-129q7-14 21.5-17.5T220-761l87 36q11-8 23-15t24-12l12-93q2-15 13-25t26-10h150q15 0 26 10t13 25l12 93q13 5 24.5 12t22.5 15l87-36q14-5 28-1t22 17l74 129q8 13 5 28t-15 24l-75 57q1 7 1 13.5v27q0 6.5-2 13.5l75 57q12 9 15 24t-5 28l-74 128q-8 13-22.5 17.5T738-199l-85-36q-11 8-23 15t-24 12l-12 93q-2 15-13 25t-26 10Zm-73-260q58 0 99-41t41-99q0-58-41-99t-99-41q-59 0-99.5 41T342-480q0 58 40.5 99t99.5 41Z"/>
</svg>