<?xml version="1.0" encoding="UTF-8" standalone="no"?>
<svg
   viewBox="278.2537 304.8906 1234.9252 1234.9252"
   version="1.1"
   id="svg2"
   sodipodi:docname="nfc-lab.svg"
   width="512"
   height="512"
   inkscape:version="1.4.2 (ebf0e940d0, 2025-05-08)"
   xmlns:inkscape="http://www.inkscape.org/namespaces/inkscape"
   xmlns:sodipodi="http://sodipodi.sourceforge.net/DTD/sodipodi-0.dtd"
   xmlns="http://www.w3.org/2000/svg"
   xmlns:svg="http://www.w3.org/2000/svg">
  <defs
     id="defs2" />
  <sodipodi:namedview
     id="namedview2"
     pagecolor="#ffffff"
     bordercolor="#000000"
     borderopacity="0.25"
     inkscape:showpageshadow="2"
     inkscape:pageopacity="0.0"
     inkscape:pagecheckerboard="0"
     inkscape:deskcolor="#d1d1d1"
     inkscape:zoom="1.207538"
     inkscape:cx="233.94709"
     inkscape:cy="57.96919"
     inkscape:window-width="2164"
     inkscape:window-height="1840"
     inkscape:window-x="676"
     inkscape:window-y="225"
     inkscape:window-maximized="0"
     inkscape:current-layer="svg2" />
  <path
     fill="#ddd4ff"
     d="m 886.64305,367.74853 c 16.787,-2.388 37.55,0.25 53.256,6.668 37.163,15.188 61.68505,56.234 59.33,96.049 -0.544,9.205 -6.583,20.785 -2.838,29.708 2.276,2.036 4.12405,2.771 7.01805,3.686 10.568,-2.385 21.333,-22.662 29.133,-30.591 10.189,-10.357 21.469,-19.416 32.123,-29.254 12.339,-11.396 23.358,-24.103 37.486,-33.421 19.396,-12.793 47.422,-16.026 69.9,-11.245 l 8.45,1.609 c 21.871,3.625 38.803,19.661 51.123,37.188 11.948,16.997 14.705,34.452 15.087,54.776 0.146,7.657 0.326,16.213 -1.046,23.76 l -0.225,1.132 c -1.823,9.68 -6.897,16.706 -10.868,25.426 -2.284,5.034 -3.724,10.97 -1.857,16.29 7.021,4.19 16.888,1.487 24.606,1.061 7.988,-0.441 16.842,-0.646 24.785,0.346 25.966,3.249 49.987,17.516 65.895,38.116 15.83,20.477 21.748,50.362 18.316,75.79 -3.251,24.076 -17.224,40.399 -32.57,58.288 -2.723,3.171 -7.347,7.233 -8.889,11.048 -1.17,2.878 -0.933,7.42 0.451,10.086 11.892,1.307 24.346,-2.878 36.452,-2.454 25.089,0.882 51.517,13.747 68.595,31.924 15.999,17.03 24.369,35.235 25.798,58.578 0.866,14.01 -0.326,28.896 -5.141,42.162 -3.409,9.382 -8.348,19.024 -14.323,27.028 -10.451,13.993 -22.58,26.14 -34.697,38.634 -5.783,5.958 -12.42,11.998 -17.416,18.619 -1.744,2.304 -2.194,4.39 -2.284,7.225 1.508,2.945 2.802,4.35 6.256,4.998 7.301,1.369 15.874,-0.088 23.232,-0.68 14.514,-1.168 31.3,2.828 44.204,9.379 24.099,12.22497 43.698,33.60677 52.001,59.54147 4.298,13.4338 6.177,26.9138 4.208,41.0228 -2.543,18.213 -10.159,35.911 -21.185,50.575 -12.77,16.981 -29.364,31.146 -44.542,45.907 l -69.439,68.168 -67.133,67.943 c -14.963,15.391 -29.466,31.929 -46.623,44.946 -19.036,14.457 -42.392,29.083 -66.368,32.582 -5.288,0.765 -10.643,1.53 -15.964,0.765 -15.661,-2.272 -28.127,-6.401 -41.313,-15.537 -26.018,-18.035 -48.525,-49.323 -44.887,-82.378 1.13,-10.272 5.872,-21.894 3.493,-32.267 -0.643,-2.801 -1.072,-3.026 -3.463,-4.522 -5.433,-0.462 -9.185,-0.259 -13.892,2.733 -6.184,3.938 -11.198,9.552 -16.342,14.716 l -24.633,25.157 -72.92405,73.501 c -20.1,20.656 -38.092,43.034 -61.417,60.304 -20.763,15.379 -43.835,24.425 -70.047,20.375 l -1.534,-0.237 c -23.23,-3.555 -43.799,-18.046 -59.134,-35.282 -12.643,-13.298 -22.021,-28.644 -24.855,-46.927 -2.222,-14.333 0.36,-30.871 1.547,-45.272 l -6.85,-8.045 c -16.924,9.383 -27.759,22.13 -41.084,35.676 l -42.488,42.652 c -25.656,26.18 -49.65,56.388 -87.544,64.005 -17.219,3.465 -34.808,0.619 -51.119,-5.445 -23.943,-8.888 -45.348,-24.122 -56.136,-47.94 -6.04,-13.332 -8.138,-28.453 -8.334,-42.977 -0.335,-25.011 8.359,-46.432 24.657,-65.288 7.013,-8.101 15.309,-15.47 22.957,-22.997 7.427,-7.324 14.364,-13.692 18.09,-23.671 -0.258,-1.463 -0.494,-2.509 -1.445,-3.69 -1.723,-2.149 -3.339,-3.42 -6.229,-3.612 -4.49,-0.303 -9.274,1.575 -13.655,2.363 -7.804,1.395 -16.094,1.204 -23.915,0.045 -27.347,-4.073 -53.628,-18.755 -70.287,-40.998 -15.002,-20.026 -19.896,-45.846 -16.411,-70.406 2.676,-18.863 8.613,-35.75 21.235,-50.314 5.642,-6.507 12.377,-12.184 18.517,-18.24 l 25.255,-25.9778 c 13.103,-13.1909 27.863,-26.7427 36.996,-43.0926 -13.818,-1.8319 -27.862,-0.3329 -41.437,-4.0849 -7.743,-2.14 -14.755,-5.36297 -22.172,-8.32997 -22.093,-8.837 -44.966,-17.857 -57.191,-40.035 -8.819,-16.001 -12.161,-33.48 -11.037,-51.699 1.102,-17.845 6.186,-36.835 16.075,-51.888 9.211,-14.02 21.416,-25.868 31.61,-39.156 6.233,-8.124 11.965,-16.324 14.651,-26.358 l 0.453,-1.723 c 1.9,-6.96 2.577,-14.329 1.158,-21.464 l -0.27,-1.282 c -0.795,-4.265 -2.264,-7.915 -4.549,-11.605 -4.049,-6.54 -11.456,-12.971 -19.098,-14.477 -17.154,-3.383 -35.21,14.979 -48.104,24.038 -9.081,6.379 -23.609,12.377 -34.782,10.362 l -1.25,-0.241 c -10.857,-2.005 -19.564,-8.522 -26.348,-17.021 -12.258,-15.356 -14.862,-37.072 -12.323,-56.044 2.622,-19.582 10.692,-36.921 22.497,-52.638 18.17,-24.189 41.609,-45.237 63.55,-65.972 l 65.101,-62.977 63.886,-64.634 c 15.967,-16.653 30.489,-34.421 48.919,-48.554 22.829,-17.507 45.365,-20.782 73.592,-17.316 l 2.16,0.256 c 20.319,2.928 41.012,13.535 53.507,30.002 16.508,21.757 28.296,54.397 25.079,81.886 -0.787,6.724 -5.523,13.241 -2.584,19.836 3.335,2.353 5.166,3.182 9.034,1.315 7.859,-3.795 15.6,-13.85 22.065,-19.904 l 64.623,-61.499 c 27.369,-27.93 54.096,-64.699 96.079,-68.584 z"
     id="path1" />
  <path
     fill="#5a0fe9"
     d="m 902.56158,547.21539 c 7.68085,-0.57716 17.1922,1.74724 23.81211,5.67823 12.17213,7.2252 19.31407,19.45809 22.34951,32.97918 l 0.33865,1.56272 c 2.73617,12.28352 3.01631,25.80911 4.23364,38.36601 l 7.03056,73.4727 14.27376,147.10628 8.32215,84.96191 c 1.87436,-11.38121 2.50328,-22.91655 3.74535,-34.37652 l 8.14889,-77.61407 c 2.28164,-21.67223 1.54134,-49.25444 11.7334,-68.67878 5.4588,-10.40464 16.1346,-18.29364 27.3921,-21.46071 16.8119,-4.73092 37.0665,0.57716 47.9932,14.63491 5.1776,6.66042 6.6548,16.52391 9.6182,24.38365 l 18.9305,45.92873 c 3.9332,10.68929 5.7603,21.98499 10.9953,32.1995 2.6585,5.1877 5.9426,9.6756 10.8929,12.92031 14.6709,9.62159 36.801,5.62197 53.5083,5.43746 l 77.7311,-0.28464 c 14.4572,-0.0833 30.5119,-1.48285 44.7666,0.48153 6.4016,0.8843 13.1633,2.8453 18.7324,6.19126 8.7868,5.27995 14.5921,13.67635 16.966,23.61184 2.2839,9.50909 -0.3375,20.12413 -5.7153,28.16613 -5.3554,7.99024 -14.7384,14.96455 -24.234,16.80517 l -1.4064,0.25426 c -9.3493,1.77986 -19.5424,0.82581 -29.0268,0.55804 l -49.6718,-1.50985 -81.0838,0.71667 c -21.3538,-0.63904 -43.4795,-6.87417 -61.0879,-19.19144 -11.1112,-7.77311 -20.2648,-17.38458 -29.4983,-27.20982 l -25.3185,229.81615 -6.9597,68.4032 c -1.4907,16.0097 -2.0308,32.1545 -5.3587,47.9392 -1.8384,8.7081 -5.8245,16.381 -11.9258,22.8614 -7.4603,7.943 -18.35665,12.5221 -29.20008,12.6571 -13.10706,0.1687 -25.37595,-4.2865 -34.66228,-13.7146 -7.20045,-7.313 -10.68816,-17.5174 -12.58278,-27.4067 -3.00506,-15.6835 -3.05007,-31.862 -4.3304,-47.7368 l -6.72454,-73.9576 -22.62966,-235.44488 -4.62741,-46.06599 c -8.74179,31.94186 -11.33171,66.19012 -16.33377,98.89478 l -26.1275,163.90169 c -3.1772,20.1332 -4.39677,41.8178 -9.26045,61.5414 -1.80911,7.3354 -4.67241,15.1096 -9.37858,21.1063 -7.5616,9.6306 -17.42396,15.6722 -29.75473,17.0448 -11.02006,1.2376 -23.74123,-1.4851 -32.42677,-8.5618 -8.48752,-6.9192 -13.56384,-16.1898 -16.40577,-26.6979 -2.97693,-11.0032 -3.39321,-22.8153 -4.41815,-34.1234 l -4.47778,-46.4103 -19.13294,-191.02261 c -14.02287,18.44103 -31.74385,37.32195 -53.74234,45.91523 -11.29908,4.41478 -23.24957,5.52972 -35.25519,6.24752 -24.85167,1.48622 -49.65947,-0.68517 -74.52351,-0.58954 -20.72492,0.0788 -41.46108,2.50103 -62.17587,1.24995 -9.5226,-0.57491 -19.16895,-1.52559 -27.94674,-5.57134 -10.18864,-4.69492 -17.13932,-13.42434 -20.72379,-23.89761 -2.92968,-8.55841 -0.49391,-18.28239 3.54397,-26.0195 4.49015,-8.60341 12.35327,-16.066 21.75548,-18.93718 l 1.50534,-0.4354 c 10.76467,-3.22895 21.77461,-1.05756 32.75979,-0.95968 l 85.28818,0.28914 c 14.69679,0.10351 30.86967,2.78792 45.33132,-0.29814 6.24076,-1.33096 12.19013,-4.15376 15.95237,-9.46634 9.51809,-13.44234 11.63097,-33.07706 15.53609,-48.71216 l 10.60379,-40.77253 c 6.18,-24.33077 9.97712,-57.07593 32.70578,-72.32513 9.66773,-6.48715 21.74873,-8.19613 33.05231,-5.66135 11.81998,2.65179 22.54302,9.7251 28.49914,20.34464 3.83537,6.8393 5.61073,13.93624 7.28596,21.52484 4.84005,21.92424 4.35964,44.82504 6.42752,67.11942 l 6.33527,62.27488 c 0.8483,9.68123 -0.57266,22.70391 4.7118,31.02268 1.60435,2.52466 -0.44891,12.62328 -0.35778,16.37427 0.11814,4.8783 0.92369,9.90849 1.54022,14.74517 l 34.18751,-218.75187 c 5.89649,-38.38063 9.49446,-77.10779 17.87511,-115.08453 1.37371,-6.22839 3.44384,-12.56816 6.8258,-18.01575 8.17813,-13.17682 21.02193,-17.17644 35.24844,-20.72379 z"
     id="path2"
     style="stroke-width:1.12507" />
</svg>
