<?xml version="1.0" encoding="utf-8"?>
<svg viewBox="278.2537 304.8906 1234.7218 1104.3987" xmlns="http://www.w3.org/2000/svg">
	<path fill="#DDD4FF" d="M 886.643 305.759 C 903.43 303.371 924.193 306.009 939.899 312.427 C 977.062 327.615 1001.584 368.661 999.229 408.476 C 998.685 417.681 992.646 429.261 996.391 438.184 C 998.667 440.22 1000.515 440.955 1003.409 441.87 C 1013.977 439.485 1024.742 419.208 1032.542 411.279 C 1042.731 400.922 1054.011 391.863 1064.665 382.025 C 1077.004 370.629 1088.023 357.922 1102.151 348.604 C 1121.547 335.811 1149.573 332.578 1172.051 337.359 L 1180.501 338.968 C 1202.372 342.593 1219.304 358.629 1231.624 376.156 C 1243.572 393.153 1246.329 410.608 1246.711 430.932 C 1246.857 438.589 1247.037 447.145 1245.665 454.692 L 1245.44 455.824 C 1243.617 465.504 1238.543 472.53 1234.572 481.25 C 1232.288 486.284 1230.848 492.22 1232.715 497.54 C 1239.736 501.73 1249.603 499.027 1257.321 498.601 C 1265.309 498.16 1274.163 497.955 1282.106 498.947 C 1308.072 502.196 1332.093 516.463 1348.001 537.063 C 1363.831 557.54 1369.749 587.425 1366.317 612.853 C 1363.066 636.929 1349.093 653.252 1333.747 671.141 C 1331.024 674.312 1326.4 678.374 1324.858 682.189 C 1323.688 685.067 1323.925 689.609 1325.309 692.275 C 1337.201 693.582 1349.655 689.397 1361.761 689.821 C 1386.85 690.703 1413.278 703.568 1430.356 721.745 C 1446.355 738.775 1454.725 756.98 1456.154 780.323 C 1457.02 794.333 1455.828 809.219 1451.013 822.485 C 1447.604 831.867 1442.665 841.509 1436.69 849.513 C 1426.239 863.506 1414.11 875.653 1401.993 888.147 C 1396.21 894.105 1389.573 900.145 1384.577 906.766 C 1382.833 909.07 1382.383 911.156 1382.293 913.991 C 1383.801 916.936 1385.095 918.341 1388.549 918.989 C 1395.85 920.358 1404.423 918.901 1411.781 918.309 C 1426.295 917.141 1443.081 921.137 1455.985 927.688 C 1480.084 939.913 1499.683 961.295 1507.986 987.23 C 1512.284 1000.664 1514.163 1014.144 1512.194 1028.253 C 1509.651 1046.466 1502.035 1064.164 1491.009 1078.828 C 1478.239 1095.809 1461.645 1109.974 1446.467 1124.735 L 1377.028 1192.903 L 1309.895 1260.846 C 1294.932 1276.237 1280.429 1292.775 1263.272 1305.792 C 1244.236 1320.249 1220.88 1334.875 1196.904 1338.374 C 1191.616 1339.139 1186.261 1339.904 1180.94 1339.139 C 1165.279 1336.867 1152.813 1332.738 1139.627 1323.602 C 1113.609 1305.567 1091.102 1274.279 1094.74 1241.224 C 1095.87 1230.952 1100.612 1219.33 1098.233 1208.957 C 1097.59 1206.156 1097.161 1205.931 1094.77 1204.435 C 1089.337 1203.973 1085.585 1204.176 1080.878 1207.168 C 1074.694 1211.106 1069.68 1216.72 1064.536 1221.884 L 1039.903 1247.041 L 966.979 1320.542 C 946.879 1341.198 928.887 1363.576 905.562 1380.846 C 884.799 1396.225 861.727 1405.271 835.515 1401.221 L 833.981 1400.984 C 810.751 1397.429 790.182 1382.938 774.847 1365.702 C 762.204 1352.404 752.826 1337.058 749.992 1318.775 C 747.77 1304.442 750.352 1287.904 751.539 1273.503 L 744.689 1265.458 C 727.765 1274.841 716.93 1287.588 703.605 1301.134 L 661.117 1343.786 C 635.461 1369.966 611.467 1400.174 573.573 1407.791 C 556.354 1411.256 538.765 1408.41 522.454 1402.346 C 498.511 1393.458 477.106 1378.224 466.318 1354.406 C 460.278 1341.074 458.18 1325.953 457.984 1311.429 C 457.649 1286.418 466.343 1264.997 482.641 1246.141 C 489.654 1238.04 497.95 1230.671 505.598 1223.144 C 513.025 1215.82 519.962 1209.452 523.688 1199.473 C 523.43 1198.01 523.194 1196.964 522.243 1195.783 C 520.52 1193.634 518.904 1192.363 516.014 1192.171 C 511.524 1191.868 506.74 1193.746 502.359 1194.534 C 494.555 1195.929 486.265 1195.738 478.444 1194.579 C 451.097 1190.506 424.816 1175.824 408.157 1153.581 C 393.155 1133.555 388.261 1107.735 391.746 1083.175 C 394.422 1064.312 400.359 1047.425 412.981 1032.861 C 418.623 1026.354 425.358 1020.677 431.498 1014.621 L 456.753 988.643 C 469.856 975.452 484.616 961.9 493.749 945.55 C 479.931 943.718 465.887 945.217 452.312 941.465 C 444.569 939.325 437.557 936.102 430.14 933.135 C 408.047 924.298 385.174 915.278 372.949 893.1 C 364.13 877.099 360.788 859.62 361.912 841.401 C 363.014 823.556 368.098 804.566 377.987 789.513 C 387.198 775.493 399.403 763.645 409.597 750.357 C 415.83 742.233 421.562 734.033 424.248 723.999 L 424.701 722.276 C 426.601 715.316 427.278 707.947 425.859 700.812 L 425.589 699.53 C 424.794 695.265 423.325 691.615 421.04 687.925 C 416.991 681.385 409.584 674.954 401.942 673.448 C 384.788 670.065 366.732 688.427 353.838 697.486 C 344.757 703.865 330.229 709.863 319.056 707.848 L 317.806 707.607 C 306.949 705.602 298.242 699.085 291.458 690.586 C 279.2 675.23 276.596 653.514 279.135 634.542 C 281.757 614.96 289.827 597.621 301.632 581.904 C 319.802 557.715 343.241 536.667 365.182 515.932 L 430.283 452.955 L 494.169 388.321 C 510.136 371.668 524.658 353.9 543.088 339.767 C 565.917 322.26 588.453 318.985 616.68 322.451 L 618.84 322.707 C 639.159 325.635 659.852 336.242 672.347 352.709 C 688.855 374.466 700.643 407.106 697.426 434.595 C 696.639 441.319 691.903 447.836 694.842 454.431 C 698.177 456.784 700.008 457.613 703.876 455.746 C 711.735 451.951 719.476 441.896 725.941 435.842 L 790.564 374.343 C 817.933 346.413 844.66 309.644 886.643 305.759 Z"/>
	<path fill="#5A0FE9" transform="matrix(1.1250699758529663, 0, 0, 1.1250699758529663, 0, -50.62810134887695)" d="M802.227 476.285C809.054 475.772 817.508 477.838 823.392 481.332C834.211 487.754 840.559 498.627 843.257 510.645L843.558 512.034C845.99 522.952 846.239 534.974 847.321 546.135L853.57 611.44L866.257 742.193L873.654 817.71C875.32 807.594 875.879 797.341 876.983 787.155L884.226 718.169C886.254 698.906 885.596 674.39 894.655 657.125C899.507 647.877 908.996 640.865 919.002 638.05C933.945 633.845 951.948 638.563 961.66 651.058C966.262 656.978 967.575 665.745 970.209 672.731L987.035 713.554C990.531 723.055 992.155 733.095 996.808 742.174C999.171 746.785 1002.09 750.774 1006.49 753.658C1019.53 762.21 1039.2 758.655 1054.05 758.491L1123.14 758.238C1135.99 758.164 1150.26 756.92 1162.93 758.666C1168.62 759.452 1174.63 761.195 1179.58 764.169C1187.39 768.862 1192.55 776.325 1194.66 785.156C1196.69 793.608 1194.36 803.043 1189.58 810.191C1184.82 817.293 1176.48 823.492 1168.04 825.128L1166.79 825.354C1158.48 826.936 1149.42 826.088 1140.99 825.85L1096.84 824.508L1024.77 825.145C1005.79 824.577 986.124 819.035 970.473 808.087C960.597 801.178 952.461 792.635 944.254 783.902L921.75 988.171L915.564 1048.97C914.239 1063.2 913.759 1077.55 910.801 1091.58C909.167 1099.32 905.624 1106.14 900.201 1111.9C893.57 1118.96 883.885 1123.03 874.247 1123.15C862.597 1123.3 851.692 1119.34 843.438 1110.96C837.038 1104.46 833.938 1095.39 832.254 1086.6C829.583 1072.66 829.543 1058.28 828.405 1044.17L822.428 978.434L802.314 769.162L798.201 728.217C790.431 756.608 788.129 787.049 783.683 816.118L760.46 961.8C757.636 979.695 756.552 998.969 752.229 1016.5C750.621 1023.02 748.076 1029.93 743.893 1035.26C737.172 1043.82 728.406 1049.19 717.446 1050.41C707.651 1051.51 696.344 1049.09 688.624 1042.8C681.08 1036.65 676.568 1028.41 674.042 1019.07C671.396 1009.29 671.026 998.791 670.115 988.74L666.135 947.489L649.129 777.701C636.665 794.092 620.914 810.874 601.361 818.512C591.318 822.436 580.696 823.427 570.025 824.065C547.936 825.386 525.886 823.456 503.786 823.541C485.365 823.611 466.934 825.764 448.522 824.652C440.058 824.141 431.484 823.296 423.682 819.7C414.626 815.527 408.448 807.768 405.262 798.459C402.658 790.852 404.823 782.209 408.412 775.332C412.403 767.685 419.392 761.052 427.749 758.5L429.087 758.113C438.655 755.243 448.441 757.173 458.205 757.26L534.012 757.517C547.075 757.609 561.45 759.995 574.304 757.252C579.851 756.069 585.139 753.56 588.483 748.838C596.943 736.89 598.821 719.438 602.292 705.541L611.717 669.301C617.21 647.675 620.585 618.57 640.787 605.016C649.38 599.25 660.118 597.731 670.165 599.984C680.671 602.341 690.202 608.628 695.496 618.067C698.905 624.146 700.483 630.454 701.972 637.199C706.274 656.686 705.847 677.041 707.685 696.857L713.316 752.209C714.07 760.814 712.807 772.389 717.504 779.783C718.93 782.027 717.105 791.003 717.186 794.337C717.291 798.673 718.007 803.144 718.555 807.443L748.942 613.009C754.183 578.895 757.381 544.473 764.83 510.718C766.051 505.182 767.891 499.547 770.897 494.705C778.166 482.993 789.582 479.438 802.227 476.285Z"/>
</svg>